{"title":"Despicable Me PPVRiP AC3 XViD - IMAGiNE  (BX)","uid":5940574,"size":1503435766,"categoryP":"video","categoryS":"movies","magnet":"?xt=urn:btih:9fdf319a16e9c9a4a01996b7087bb29925dc5e74&amp;dn=Despicable+Me+PPVRiP+AC3+XViD+-+IMAGiNE++%28BX%29&amp;tr=udp%3A%2F%2Ftracker.openbittorrent.com%3A80&amp;tr=udp%3A%2F%2Fopen.demonii.com%3A1337&amp;tr=udp%3A%2F%2Ftracker.coppersurfer.tk%3A6969&amp;tr=udp%3A%2F%2Fexodus.desync.com%3A6969","seeders":0,"leechers":0,"uploader":"Kill3rK","files":102,"time":1289157993,"description":"Clean Scene Releases   &lt;a href=&quot; http://bitxtre.me/&quot; rel=&quot;nofollow&quot; target=&quot;_NEW&quot;&gt; http://bitxtre.me/&lt;/a&gt;\n\n\n-------------------------------------------------------------------------------------\n                                   nfo\n\n\n\n\n    *********** ****    ****      ***      ******** *********** ****    *** **********\n           *+*     +*+*+* *+*+*+   *+* *+*   *+*    *+*    *+*     *+*+*   *+* *+*        \n           +*+     +*+ +*+*+ +*+  +*+   +*+  +*+           +*+     *+*+*+  +*+ +*+        \n           +$+     +$+  +*+  +$+ +$++*++$++* *$*           +$+     +$+ +*+ +$+ +$++*++$  \n           +$+     +$+       +$+ +$+     +$+ +$+   +$+$    +$+     +$+  +$+$+$ +$+        \n           $+$     $+$       $+$ $+$     $+$ $+$    $+$    $+$     $+$   $+$+$ $+$        \n       $$$$$$$$$$$ $$$       $$$ $$$     $$$  $$$$$$$$ $$$$$$$$$$$ $$$    $$$$ $$$$$$$$$$     \n                                                \n\n\n\n                           Another Fine Release Brought to you from - IMAGiNE                   \n                                                 \n\n********************************************************************************************************************                                \n                                Despicable Me PPVRiP AC3 XViD - IMAGiNE\n\n********************************************************************************************************************\n\nRipper ...........:IMAGiNE                                   IMDB Rating.......:7.7/10                             \nVideo Codec.......:XVID                                      Release Date......:09/07/10\nAudio Codec.......:AC3                                       Theatre Date......:06/11/10\nAudio Bitrate.....:224                                       Runtime...........:1h 34mn\nSubtitles.........:NIL                                       Language..........:ENGLISH\nResolution........:688 x 384                                 IMDb URL..........:http://www.imdb.com/title/tt1323594/\n\n\n[color=yellow]DETAILS:[/color]\n\nVideo\nID                               : 0\nFormat                           : MPEG-4 Visual\nFormat profile                   : Advanced Simple@L5\nFormat settings, BVOP            : Yes\nFormat settings, QPel            : No\nFormat settings, GMC             : No warppoints\nFormat settings, Matrix          : Default (H.263)\nMuxing mode                      : Packed bitstream\nCodec ID                         : XVID\nCodec ID/Hint                    : XviD\nDuration                         : 1h 34mn\nBit rate                         : 1 854 Kbps\nWidth                            : 688 pixels\nHeight                           : 384 pixels\nDisplay aspect ratio             : 16:9\nFrame rate                       : 23.976 fps\nColor space                      : YUV\nChroma subsampling               : 4:2:0\nBit depth                        : 8 bits\nScan type                        : Progressive\nBits/(Pixel*Frame)               : 0.293\nStream size                      : 1.22 GiB (89%)\nWriting library                  : XviD 1.1.2 (UTC 2006-11-01)\n\nAudio\nID                               : 1\nFormat                           : AC-3\nFormat/Info                      : Audio Coding 3\nMode extension                   : CM (complete main)\nCodec ID                         : 2000\nDuration                         : 1h 34mn\nBit rate mode                    : Constant\nBit rate                         : 224 Kbps\nChannel(s)                       : 2 channels\nChannel positions                : Front: L R\nSampling rate                    : 48.0 KHz\nBit depth                        : 16 bits\nStream size                      : 152 MiB (11%)\nAlignment                        : Aligned on interleaves\nInterleave, duration             : 42 ms (1.00 video frame)\nInterleave, preload duration     : 512 ms\n\n\n\n\n\n\n[color=yellow]SOURCES:[/color]\n\nVIDEO:Despicable Me Files ......Thanks tcao69 mate :)\nAUDIO:Despicable Me Files ......Thanks tcao69 mate :)\n\n[color=yellow]NOTES:[/color]\n\nIMAGiNE bringing you another release.......... Despicable Me\n\nWell here we go with a nice PPVRiP for you to enjoy...\nWe we're sent the the files from a good friend so thanks go out to him for them... :) Thanks Bro\nThe video and audio on this release are not to bad at all considering what type of release it is.\nWe did do a few things to make it that much better for you though.Anyway for this we made a small script containing crop,resize,sharpness,noise reduction,chroma,brightness\ncontrast,rgb eq. \nWe adjusted the colours as they were quiet strong ......some slight noise to the video \nwhich we removed aswell.\nThe audio ....we decided to leave it how it was on the vobs with a AC3 audio track....\n\nAnyway Enjoy folks....\n\n\n\n[color=yellow]SCREENS:[/color]\n\n[IMG]http://imagine.takagari.com/Despicable%20Me/vlcsnap-2010-11-07-01h03m15s5.png[/IMG]\n[IMG]http://imagine.takagari.com/Despicable%20Me/vlcsnap-2010-11-07-01h24m05s57.png[/IMG]\n[IMG]http://imagine.takagari.com/Despicable%20Me/vlcsnap-2010-11-07-01h28m12s217.png[/IMG]\n[IMG]http://imagine.takagari.com/Despicable%20Me/vlcsnap-2010-11-07-01h37m58s196.png[/IMG]\n[IMG]http://imagine.takagari.com/Despicable%20Me/vlcsnap-2010-11-07-01h41m07s76.png[/IMG]\n","torrent":{"xt":"urn:btih:9fdf319a16e9c9a4a01996b7087bb29925dc5e74","amp;dn":"Despicable+Me+PPVRiP+AC3+XViD+-+IMAGiNE++%28BX%29","amp;tr":["udp%3A%2F%2Ftracker.openbittorrent.com%3A80","udp%3A%2F%2Fopen.demonii.com%3A1337","udp%3A%2F%2Ftracker.coppersurfer.tk%3A6969","udp%3A%2F%2Fexodus.desync.com%3A6969"],"infoHash":"9fdf319a16e9c9a4a01996b7087bb29925dc5e74","infoHashBuffer":{"type":"Buffer","data":[159,223,49,154,22,233,201,164,160,25,150,183,8,123,178,153,37,220,94,116]},"announce":[],"urlList":[]}}